<?xml version="1.0" standalone="no"?>
<!DOCTYPE svg PUBLIC "-//W3C//DTD SVG 20010904//EN"
 "http://www.w3.org/TR/2001/REC-SVG-20010904/DTD/svg10.dtd">
<svg version="1.0" xmlns="http://www.w3.org/2000/svg"
 width="300.000000pt" height="240.000000pt" viewBox="0 0 300.000000 240.000000"
 preserveAspectRatio="xMidYMid meet">
<metadata>
Created by potrace 1.10, written by Peter Selinger 2001-2011
</metadata>
<g transform="translate(0.000000,240.000000) scale(0.100000,-0.100000)"
fill="#000000" stroke="none">
<path d="M1307 2275 c-224 -43 -415 -144 -577 -305 -200 -201 -305 -441 -317
-725 -13 -316 94 -592 317 -815 141 -140 300 -233 495 -286 91 -25 115 -28
275 -28 157 0 185 3 272 27 385 103 682 400 785 785 24 87 27 115 27 272 0
157 -3 185 -27 272 -103 385 -404 685 -785 785 -124 32 -344 41 -465 18z m263
-27 c0 -4 29 -5 65 -1 47 4 65 3 65 -6 0 -8 -14 -11 -42 -8 -24 2 -33 2 -20 0
26 -5 48 -38 32 -48 -49 -30 -155 -16 -155 21 0 11 10 21 25 25 16 4 4 6 -33
6 -32 0 -62 4 -67 9 -5 5 20 9 60 9 39 0 70 -3 70 -7z m-135 -12 c38 -8 50
-16 50 -30 0 -30 -67 -49 -116 -34 -50 14 -53 43 -6 57 20 6 24 9 12 10 -38 1
-64 -11 -67 -32 -6 -44 -153 -61 -153 -17 0 17 75 42 123 41 17 0 32 4 32 9 0
13 62 11 125 -4z m373 -21 c57 -18 63 -34 16 -47 -64 -18 -170 39 -112 61 13
5 28 7 33 5 6 -1 34 -10 63 -19z m-717 -46 c-24 -11 -46 -17 -49 -15 -6 6 58
34 78 34 8 1 -5 -8 -29 -19z m834 7 c19 -8 35 -18 35 -21 0 -5 -70 21 -79 30
-8 9 10 5 44 -9z m-749 -22 c17 -4 24 -13 24 -29 0 -31 -18 -48 -68 -64 -33
-11 -47 -12 -71 -1 -32 13 -35 20 -25 57 6 23 77 55 102 47 8 -2 25 -7 38 -10z
m183 5 c28 -10 32 -15 29 -42 -3 -25 -10 -33 -45 -45 -56 -21 -123 -4 -123 31
0 30 10 42 45 55 40 14 56 14 94 1z m200 0 c25 -9 31 -16 31 -40 0 -24 -6 -31
-37 -45 -65 -27 -145 3 -136 50 8 40 78 57 142 35z m207 -14 c66 -43 -14 -104
-101 -75 -61 20 -69 81 -12 93 35 8 87 -1 113 -18z m181 -4 c21 -11 33 -32 33
-56 0 -8 -17 -19 -38 -26 -34 -10 -45 -8 -85 9 -40 18 -47 25 -47 50 0 24 5
31 33 39 32 10 67 4 104 -16z m-927 -5 c0 -26 -28 -65 -60 -83 -41 -24 -66
-28 -88 -14 -10 6 7 21 60 54 67 43 88 53 88 43z m1051 -41 c68 -44 80 -65 37
-65 -29 0 -108 48 -108 65 0 7 -3 20 -6 29 -9 24 1 20 77 -29z m-826 -42 c32
-15 36 -21 33 -52 -3 -31 -9 -39 -47 -60 -42 -23 -46 -23 -85 -9 -43 15 -52
32 -42 74 5 17 21 32 49 44 51 24 48 24 92 3z m209 2 c32 -13 36 -19 36 -50 0
-65 -90 -96 -158 -55 -23 14 -32 26 -28 36 3 9 6 23 6 33 0 19 52 49 86 50 12
1 38 -6 58 -14z m206 -3 c30 -14 35 -23 38 -55 3 -36 1 -38 -43 -57 l-45 -20
-45 22 c-24 12 -46 29 -48 37 -7 36 6 63 37 77 41 17 64 17 106 -4z m193 -2
c37 -17 46 -25 50 -52 4 -25 0 -37 -15 -51 -34 -29 -67 -32 -113 -9 -33 16
-44 27 -49 52 -7 39 -3 47 37 64 42 19 38 19 90 -4z m-809 -5 c38 -16 44 -33
27 -77 -11 -30 -81 -63 -113 -54 -44 11 -51 21 -44 60 5 28 16 41 49 61 23 13
43 25 43 25 1 0 18 -7 38 -15z m984 1 c37 -19 59 -46 66 -82 6 -26 3 -32 -19
-42 -39 -18 -67 -15 -108 13 -26 18 -37 33 -37 50 0 14 -1 28 -2 33 -2 5 58
42 70 42 2 0 15 -6 30 -14z m-1131 -40 c3 -2 0 -21 -6 -42 -8 -29 -21 -46 -53
-66 -39 -24 -44 -25 -69 -12 -26 13 -27 17 -18 44 6 16 27 44 46 61 29 25 42
30 66 25 17 -3 32 -8 34 -10z m1316 -18 c22 -20 40 -46 43 -64 6 -29 4 -33
-26 -39 -46 -10 -107 32 -116 81 -12 63 40 74 99 22z m-872 -68 c38 -20 40
-23 37 -63 -3 -37 -8 -44 -43 -64 -49 -28 -71 -29 -113 -3 -30 19 -33 24 -30
62 3 38 7 45 43 65 49 28 56 28 106 3z m219 2 c32 -15 35 -22 38 -63 3 -46 3
-46 -45 -69 -47 -22 -47 -22 -93 -3 -45 19 -45 19 -45 68 0 47 2 51 35 67 43
22 65 22 110 0z m209 -2 c42 -21 51 -36 51 -81 0 -22 -8 -34 -32 -49 -43 -26
-77 -25 -119 3 -30 20 -34 28 -34 67 0 41 3 46 35 62 45 22 53 22 99 -2z
m-1065 -41 c-41 -43 -52 -35 -13 9 19 21 36 34 38 29 2 -5 -9 -22 -25 -38z
m413 41 c39 -15 50 -33 45 -75 -3 -29 -12 -41 -43 -61 -45 -28 -69 -30 -109
-9 -23 12 -30 23 -30 44 0 44 9 60 49 86 40 28 48 29 88 15z m858 -13 c31 -17
41 -31 49 -61 8 -36 7 -42 -18 -63 -31 -26 -65 -29 -105 -9 -37 20 -48 34 -56
78 -7 34 -5 39 26 57 43 26 55 26 104 -2z m336 -19 c33 -41 33 -41 6 -23 -25
16 -47 44 -47 59 0 13 10 4 41 -36z m-1376 10 c27 -12 33 -46 16 -91 -13 -34
-75 -71 -106 -63 -29 7 -55 33 -50 49 2 7 6 24 9 39 4 16 21 38 43 53 42 28
52 30 88 13z m1224 -14 c39 -25 51 -47 51 -95 0 -18 -8 -29 -25 -37 -39 -18
-57 -15 -98 19 -32 26 -37 36 -37 73 0 35 4 45 23 54 33 16 44 14 86 -14z
m-1395 -20 c10 -4 16 -18 16 -42 0 -28 -8 -43 -40 -74 -44 -41 -55 -45 -84
-23 -28 21 -14 82 27 117 32 28 52 33 81 22z m1561 -26 c21 -21 36 -46 40 -69
6 -31 4 -36 -21 -47 -24 -11 -31 -10 -65 14 -21 14 -40 34 -43 43 -16 59 -16
70 1 80 30 18 52 12 88 -21z m-1703 -77 c-10 -28 -50 -77 -57 -69 -2 2 11 26
28 55 34 56 46 62 29 14z m1793 -17 c15 -25 25 -47 23 -50 -8 -8 -45 41 -56
74 -15 43 0 33 33 -24z m-970 23 c38 -21 40 -26 43 -74 3 -50 2 -53 -35 -77
-44 -30 -72 -32 -116 -10 -41 22 -47 31 -47 79 0 47 4 54 50 83 44 27 55 27
105 -1z m215 3 c49 -25 58 -43 52 -98 -3 -36 -10 -47 -36 -63 -41 -25 -76 -24
-117 4 -32 21 -34 27 -34 77 0 53 1 55 40 77 49 28 47 28 95 3z m-440 -10 c38
-20 40 -22 40 -69 0 -54 -8 -66 -62 -95 -32 -17 -40 -18 -68 -6 -47 20 -60 37
-60 83 0 51 5 58 50 86 43 26 51 26 100 1z m670 -5 c33 -21 40 -31 45 -70 8
-51 3 -61 -50 -90 l-37 -19 -47 25 c-39 22 -47 32 -55 67 -11 51 -5 67 36 92
43 26 60 25 108 -5z m-890 0 c34 -18 51 -44 45 -71 -2 -10 -6 -30 -9 -44 -3
-17 -20 -33 -49 -49 l-45 -24 -33 19 c-32 19 -34 23 -34 74 0 52 2 55 40 82
47 32 48 32 85 13z m1086 -10 c33 -20 45 -33 49 -59 11 -55 3 -77 -37 -99 -33
-19 -39 -20 -63 -7 -56 30 -75 56 -75 104 0 42 3 47 38 65 46 25 38 25 88 -4z
m-1264 -21 c29 -15 30 -17 23 -62 -8 -52 -15 -63 -56 -93 -30 -21 -49 -17 -82
16 -25 24 -11 94 24 128 34 31 48 33 91 11z m1457 -13 c26 -24 31 -36 31 -75
0 -41 -3 -48 -32 -66 -35 -21 -45 -18 -90 25 -37 34 -40 105 -6 129 33 24 62
19 97 -13z m-1615 -20 c27 -29 10 -106 -30 -137 -28 -22 -32 -22 -52 -8 -17
12 -22 25 -22 63 0 82 61 130 104 82z m1760 -12 c36 -43 37 -110 1 -133 -23
-15 -26 -15 -60 15 -31 28 -35 37 -35 80 0 74 48 93 94 38z m-1884 -78 c0 -29
-7 -48 -26 -68 -14 -15 -24 -21 -21 -13 9 33 41 120 44 120 2 0 3 -18 3 -39z
m1959 -33 c11 -32 17 -58 13 -58 -13 0 -39 53 -46 95 -10 54 6 36 33 -37z
m-950 20 c49 -29 61 -46 61 -88 0 -46 -19 -72 -70 -95 -40 -18 -42 -18 -73 0
-59 33 -67 45 -67 95 0 50 10 64 65 93 39 21 41 21 84 -5z m-449 -10 c44 -26
50 -41 43 -99 -5 -36 -12 -45 -51 -70 l-45 -29 -41 23 c-40 22 -41 24 -44 79
-3 57 -3 57 39 88 23 16 46 30 51 30 5 0 27 -10 48 -22z m231 2 l40 -21 -3
-62 -3 -62 -46 -24 c-41 -22 -49 -23 -76 -12 -50 21 -73 48 -73 87 0 46 14 71
53 94 40 25 58 25 108 0z m460 -3 c31 -21 34 -28 37 -79 3 -51 0 -58 -24 -77
-43 -34 -68 -36 -116 -9 -49 26 -64 58 -54 111 5 29 15 41 44 57 49 25 72 25
113 -3z m215 -7 c43 -30 44 -32 44 -85 0 -50 -2 -55 -34 -74 -42 -26 -62 -26
-106 0 -45 28 -50 36 -50 84 0 22 4 45 8 51 8 13 73 54 85 54 5 0 28 -14 53
-30z m-1105 -11 c25 -18 29 -27 29 -69 0 -44 -4 -51 -37 -79 -44 -37 -55 -38
-94 -10 -25 18 -29 27 -29 70 0 44 4 54 32 80 38 34 60 36 99 8z m1307 -8 c56
-52 40 -145 -30 -167 -21 -6 -83 28 -92 52 -3 9 -6 35 -6 59 0 35 5 48 26 64
36 29 64 26 102 -8z m-1479 -12 c20 -19 23 -29 19 -71 -4 -40 -11 -55 -34 -74
-36 -29 -39 -29 -76 -3 -28 21 -30 25 -25 73 5 38 12 57 32 74 33 28 55 28 84
1z m1635 -8 c24 -25 27 -35 24 -80 -3 -44 -7 -55 -30 -69 -25 -15 -28 -14 -62
12 -33 25 -36 31 -36 80 0 44 4 56 23 69 32 23 50 21 81 -12z m-1789 -7 c36
-23 35 -90 -1 -133 -14 -17 -30 -31 -34 -31 -42 0 -55 108 -19 154 24 31 23
30 54 10z m1913 -14 c29 -39 30 -109 2 -135 -20 -18 -21 -18 -50 10 -25 24
-30 37 -30 76 0 38 5 51 22 63 30 21 31 21 56 -14z m-2004 -77 c-6 -47 -22
-89 -30 -81 -7 8 19 128 28 128 5 0 6 -21 2 -47z m2059 -21 c8 -34 11 -62 8
-62 -4 0 -5 -28 -4 -62 3 -46 -1 -68 -12 -83 -15 -19 -15 -19 -36 2 -32 32
-37 101 -9 136 19 24 24 26 38 15 14 -11 15 -10 7 7 -10 22 -20 123 -12 115 3
-3 12 -33 20 -68z m-1338 -25 c39 -22 40 -24 43 -85 3 -60 2 -62 -30 -82 -54
-33 -72 -34 -117 -6 -40 26 -41 27 -41 85 0 59 0 59 43 85 52 31 53 31 102 3z
m234 1 c47 -29 51 -35 51 -89 0 -49 -9 -61 -66 -94 -39 -22 -71 -15 -113 24
-24 23 -31 37 -31 68 0 45 12 65 55 92 40 26 60 25 104 -1z m238 -4 l44 -25
-3 -61 -3 -61 -47 -26 -48 -26 -47 26 -48 26 0 64 0 63 40 23 c51 29 59 29
112 -3z m231 -4 c40 -28 42 -33 42 -80 0 -54 -17 -78 -72 -101 -26 -11 -35
-10 -66 7 -54 29 -62 41 -62 95 0 46 3 51 42 79 22 16 49 30 58 30 9 0 36 -14
58 -30z m-911 -6 c29 -22 33 -30 33 -72 0 -54 -3 -60 -47 -90 -40 -28 -50 -28
-96 3 -34 24 -37 29 -37 76 0 44 4 54 32 80 40 36 71 37 115 3z m1122 0 c28
-23 31 -31 31 -82 0 -54 -2 -58 -35 -79 -44 -29 -52 -29 -98 2 -36 25 -37 28
-37 84 0 56 2 60 33 80 43 27 69 26 106 -5z m-1318 -5 c25 -18 29 -27 29 -71
0 -43 -4 -54 -31 -79 -38 -36 -49 -36 -88 -3 -26 22 -31 33 -31 72 0 36 6 52
27 74 32 33 55 35 94 7z m1490 0 c26 -18 29 -26 29 -79 0 -53 -3 -61 -29 -79
-37 -27 -43 -26 -80 5 -28 23 -31 32 -31 79 0 46 4 57 26 74 33 26 48 26 85 0z
m-1656 -5 c22 -14 25 -24 25 -74 0 -54 -2 -60 -31 -80 l-30 -22 -25 23 c-33
31 -34 112 -2 146 26 27 31 28 63 7z m1804 -10 c14 -18 21 -41 21 -69 0 -44
-29 -95 -54 -95 -7 0 -24 13 -39 28 -35 37 -38 104 -5 139 28 30 52 29 77 -3z
m-1927 -1 c26 -23 24 -109 -3 -142 -18 -22 -21 -23 -35 -9 -25 24 -29 90 -9
132 20 41 22 42 47 19z m-32 -233 c0 -39 -5 -62 -15 -70 -13 -10 -15 -9 -15
12 0 14 -3 54 -6 89 l-7 64 22 -19 c17 -15 21 -30 21 -76z m87 68 c33 -31 33
-115 0 -146 l-23 -22 -22 23 c-30 32 -34 117 -8 146 24 26 24 26 53 -1z m146
-3 c23 -22 27 -34 27 -80 0 -48 -3 -56 -29 -74 -37 -27 -42 -26 -74 7 -22 23
-27 37 -27 79 0 44 4 54 28 72 35 26 42 26 75 -4z m174 -1 c31 -23 33 -29 33
-84 0 -56 -1 -59 -35 -80 -20 -12 -43 -19 -53 -16 -35 12 -64 53 -69 100 -5
41 -3 47 28 75 41 38 53 38 96 5z m210 1 c43 -26 43 -26 43 -84 l0 -59 -46
-27 -46 -27 -46 29 c-41 25 -47 33 -50 67 -5 58 4 82 40 104 44 27 54 27 105
-3z m224 3 c44 -24 52 -43 47 -109 -3 -41 -6 -46 -50 -69 l-47 -25 -37 20
c-57 31 -64 41 -64 100 0 53 1 54 43 79 51 31 59 32 108 4z m247 -8 c40 -28
42 -33 42 -80 0 -47 -2 -52 -42 -80 -49 -36 -71 -37 -118 -9 -46 28 -50 35
-50 91 0 45 3 50 42 78 22 16 51 30 63 30 12 0 41 -14 63 -30z m230 0 c40 -28
42 -33 42 -80 0 -47 -2 -52 -42 -80 -50 -37 -67 -37 -119 -5 l-40 26 3 62 c3
60 4 62 43 84 52 30 64 29 113 -7z m215 8 c43 -30 47 -36 47 -85 0 -47 -17
-70 -70 -98 -30 -16 -33 -15 -76 10 l-44 26 0 59 c0 58 1 60 38 84 46 31 66
32 105 4z m193 1 c32 -20 34 -24 34 -79 0 -55 -2 -59 -36 -85 l-37 -28 -34 18
c-45 25 -56 46 -47 101 5 33 14 50 38 69 38 30 40 30 82 4z m166 -6 c40 -39
40 -103 -1 -144 -36 -36 -41 -36 -81 -2 -30 25 -32 29 -26 77 5 39 13 56 34
73 34 29 40 29 74 -4z m120 10 c28 -25 25 -114 -5 -148 l-22 -27 -28 26 c-24
22 -26 29 -21 73 4 27 16 58 27 71 24 26 25 27 49 5z m68 -64 c0 -60 -3 -80
-12 -77 -26 9 -18 158 7 158 3 0 5 -36 5 -81z m-2049 -101 c26 -32 26 -118 0
-142 -18 -17 -20 -15 -37 58 -14 62 -15 78 -4 90 16 21 18 20 41 -6z m2028 4
c13 -25 -17 -152 -35 -152 -37 0 -46 96 -13 141 24 34 35 36 48 11z m-1900
-27 c39 -45 43 -103 9 -135 -29 -27 -39 -25 -71 8 -35 37 -38 104 -5 139 12
13 25 23 29 23 4 0 21 -16 38 -35z m1815 -11 c11 -30 -6 -103 -31 -126 -22
-21 -26 -21 -51 -7 -23 13 -27 22 -30 69 -3 51 -1 57 29 82 29 25 33 26 55 12
12 -8 25 -22 28 -30z m-1646 -4 c19 -18 22 -30 20 -76 -3 -49 -6 -57 -35 -75
l-31 -20 -36 32 c-33 28 -36 36 -36 84 0 49 3 55 32 73 34 22 46 20 86 -18z
m1490 7 c17 -16 22 -31 22 -68 0 -43 -4 -51 -33 -73 -41 -31 -56 -32 -91 -5
-20 16 -26 29 -26 59 0 53 7 67 48 95 37 25 43 25 80 -8z m-1309 -7 c42 -31
42 -31 39 -87 -3 -52 -6 -59 -36 -76 -38 -23 -66 -18 -104 18 -24 22 -28 34
-28 78 0 51 2 54 38 75 20 12 40 22 43 22 3 0 25 -14 48 -30z m1124 5 c34 -24
37 -29 37 -75 0 -44 -4 -51 -37 -79 -21 -17 -44 -31 -51 -31 -17 0 -75 30 -84
44 -12 18 -9 91 5 108 11 15 76 58 87 58 3 0 22 -11 43 -25z m-907 -6 c40 -25
54 -47 54 -88 0 -45 -9 -60 -51 -81 -50 -26 -59 -25 -107 10 -40 28 -42 33
-42 80 0 46 3 51 37 75 46 30 66 31 109 4z m239 -7 c36 -25 40 -33 43 -76 4
-54 -6 -69 -60 -97 -36 -18 -40 -19 -71 -3 -58 30 -67 43 -67 100 0 51 2 55
38 78 48 32 68 31 117 -2z m230 5 c38 -22 40 -25 43 -79 3 -52 1 -57 -26 -77
-55 -39 -73 -41 -124 -15 l-48 24 0 60 c0 59 0 59 43 84 51 31 61 32 112 3z
m229 2 c35 -20 36 -23 36 -80 0 -58 -1 -59 -40 -84 -50 -31 -66 -31 -113 1
-37 25 -38 26 -35 82 3 54 5 57 43 79 50 28 65 28 109 2z m-1332 -136 c24 -23
28 -35 28 -80 0 -29 -2 -53 -4 -53 -2 0 -11 -3 -20 -6 -11 -4 -23 12 -46 62
-28 63 -29 68 -14 86 22 23 23 23 56 -9z m1909 17 c10 -6 19 -17 19 -25 0 -25
-52 -135 -64 -135 -47 0 -46 100 1 152 19 21 19 21 44 8z m-120 -31 c28 -20
29 -24 23 -68 -11 -76 -54 -112 -104 -86 -27 14 -30 20 -30 61 0 41 5 51 37
80 20 19 39 34 41 34 2 0 17 -9 33 -21z m-1637 -13 c23 -19 30 -34 34 -75 4
-50 4 -50 -33 -68 l-37 -18 -34 38 c-42 46 -48 106 -12 131 30 21 48 20 82 -8z
m168 -12 c41 -29 51 -52 46 -105 -2 -25 -11 -38 -36 -52 l-34 -20 -41 30 c-39
27 -42 32 -45 81 -3 49 -1 53 30 72 18 11 35 20 37 20 3 0 22 -12 43 -26z
m1304 5 c27 -16 34 -27 34 -52 0 -54 -11 -75 -51 -101 -37 -25 -39 -26 -73 -9
-42 20 -46 28 -39 83 5 34 13 47 46 71 22 16 42 29 45 29 2 0 20 -9 38 -21z
m-158 -82 c3 -40 -1 -50 -24 -72 -32 -30 -64 -40 -99 -31 -45 11 -61 36 -57
90 4 44 7 50 50 77 l45 29 41 -23 c38 -21 41 -26 44 -70z m-928 58 c38 -24 40
-27 40 -78 0 -48 -3 -53 -31 -69 -42 -24 -68 -23 -111 7 -30 20 -37 31 -40 67
-6 54 -4 59 30 80 39 23 67 22 112 -7z m215 -1 c35 -20 46 -33 51 -60 10 -55
-1 -78 -51 -102 -46 -22 -46 -22 -84 -3 -54 28 -63 43 -59 97 3 45 6 50 43 71
50 28 47 28 100 -3z m462 0 c44 -25 44 -26 41 -77 -3 -49 -5 -52 -49 -80 l-47
-29 -43 23 c-53 26 -59 34 -59 79 0 44 8 56 56 85 49 30 48 30 101 -1z m-228
-4 c43 -21 49 -36 41 -95 -4 -36 -10 -43 -52 -65 l-48 -25 -44 24 c-53 27 -56
33 -49 95 5 42 10 49 42 66 46 24 63 24 110 0z m-900 -118 c29 -24 34 -35 35
-72 2 -69 -23 -64 -73 14 -24 36 -40 70 -36 76 11 18 40 11 74 -18z m1766 18
c4 -7 -47 -96 -81 -138 -1 -2 -12 -1 -24 3 -19 6 -21 12 -15 43 12 64 97 129
120 92z m-1604 -44 c29 -20 38 -34 43 -67 8 -48 3 -56 -39 -64 -65 -13 -148
106 -99 142 26 19 55 16 95 -11z m1454 10 c27 -19 14 -84 -22 -114 -60 -48
-113 -37 -113 25 0 28 8 43 36 69 38 36 69 42 99 20z m-1268 -27 c36 -22 53
-53 53 -95 0 -18 -9 -29 -34 -41 -62 -29 -130 11 -141 84 -6 38 -4 43 22 57
38 21 60 20 100 -5z m1083 6 c42 -22 42 -74 1 -115 -39 -40 -73 -47 -113 -23
-33 20 -36 29 -23 88 4 20 68 64 93 65 7 0 26 -7 42 -15z m-869 -22 c47 -25
49 -28 49 -70 0 -42 -2 -45 -42 -63 -38 -17 -45 -17 -78 -4 -47 19 -70 49 -70
90 0 29 6 36 38 53 47 26 46 26 103 -6z m670 4 c19 -12 33 -26 32 -30 -2 -4
-3 -23 -3 -42 0 -32 -4 -37 -51 -60 l-50 -26 -42 23 c-23 13 -42 29 -41 36 1
6 2 25 3 41 1 24 10 35 44 55 52 32 65 32 108 3z m-446 -10 c35 -20 40 -27 43
-64 3 -40 1 -43 -37 -63 -50 -25 -62 -25 -111 0 -38 19 -40 23 -40 65 0 41 3
46 38 64 48 26 59 25 107 -2z m225 3 c36 -19 40 -24 40 -59 0 -69 -78 -108
-148 -74 -34 17 -37 21 -37 63 0 41 3 46 40 67 49 28 56 28 105 3z m-905 -96
c37 -28 62 -81 45 -98 -12 -12 -133 102 -124 116 10 16 46 8 79 -18z m1555 18
c0 -16 -102 -122 -117 -122 -28 0 -7 62 34 98 33 29 83 44 83 24z m-1385 -52
c31 -21 44 -38 47 -61 9 -60 -41 -77 -105 -34 -20 14 -37 27 -37 28 0 1 -4 17
-9 35 -9 29 -7 33 17 47 36 19 37 19 87 -15z m1220 18 c43 -19 30 -75 -26
-112 -43 -29 -67 -32 -93 -13 -29 21 -9 76 40 109 45 32 45 32 79 16z m-1025
-33 c45 -23 50 -29 50 -59 0 -18 -6 -39 -13 -45 -48 -39 -149 -8 -161 50 -3
17 -3 36 0 41 5 8 58 36 72 38 1 0 25 -11 52 -25z m858 -2 c14 -9 21 -20 18
-30 -3 -8 -6 -23 -6 -34 0 -13 -15 -26 -44 -41 -40 -19 -49 -20 -85 -9 -37 11
-41 15 -41 44 0 41 7 50 55 75 41 22 63 21 103 -5z m-654 -3 c72 -33 77 -88 9
-116 -31 -14 -43 -14 -76 -3 -51 17 -67 34 -67 69 0 24 7 33 38 49 46 25 41
25 96 1z m437 -1 c34 -17 40 -24 35 -42 -3 -12 -6 -28 -6 -34 0 -14 -70 -53
-94 -53 -9 0 -31 8 -51 17 -35 17 -44 39 -28 78 5 15 74 54 96 55 4 0 26 -9
48 -21z m-196 -13 c35 -23 34 -70 -2 -93 -61 -40 -163 -11 -163 47 0 62 99 89
165 46z m-667 -103 c13 -13 22 -27 19 -29 -7 -7 -107 67 -107 78 0 13 60 -21
88 -49z m1271 41 c-21 -26 -102 -78 -97 -63 5 16 85 79 100 79 6 0 5 -7 -3
-16z m-1128 -44 c37 -19 66 -61 54 -80 -12 -19 -57 -20 -94 -1 -74 38 -91 72
-43 89 38 14 38 14 83 -8z m988 9 c17 -6 31 -13 31 -16 0 -35 -96 -97 -135
-87 -32 8 -37 17 -29 49 4 17 20 31 48 44 51 24 46 23 85 10z m-796 -18 c33
-14 46 -26 49 -46 5 -23 1 -29 -28 -41 -43 -18 -44 -18 -98 6 -37 16 -46 24
-46 45 0 19 8 28 33 39 42 19 39 19 90 -3z m624 -7 c61 -38 -43 -110 -123 -84
-31 11 -35 15 -32 42 3 26 10 33 48 49 46 18 69 17 107 -7z m-413 1 c30 -13
36 -20 36 -45 0 -26 -5 -31 -41 -41 -34 -11 -48 -10 -82 2 -36 12 -42 19 -45
44 -2 26 2 33 25 42 40 16 65 15 107 -2z m201 1 c81 -34 16 -106 -81 -91 -74
11 -86 56 -24 87 43 22 60 22 105 4z m-470 -100 c19 -8 35 -22 35 -30 0 -9 -3
-16 -7 -16 -19 0 -133 44 -133 52 0 13 68 9 105 -6z m188 -5 c43 -17 36 -47
-13 -55 -89 -14 -163 36 -92 63 29 11 61 9 105 -8z m360 8 c85 -23 9 -78 -87
-62 -30 5 -36 10 -34 26 2 13 16 25 38 33 44 16 39 16 83 3z m197 3 c0 -7
-124 -52 -143 -52 -18 0 10 34 37 46 34 15 106 19 106 6z m-349 -23 c14 -23
11 -28 -31 -39 -81 -22 -174 22 -108 50 33 14 128 6 139 -11z m-101 -60 c19
-10 -91 -12 -117 -2 -15 6 -13 9 12 14 33 6 81 1 105 -12z m153 10 c21 0 21
-1 2 -9 -23 -10 -132 -13 -122 -4 9 10 70 22 85 18 8 -2 23 -4 35 -5z"/>
</g>
</svg>
