<?xml version="1.0" standalone="no"?>
<!DOCTYPE svg PUBLIC "-//W3C//DTD SVG 20010904//EN"
 "http://www.w3.org/TR/2001/REC-SVG-20010904/DTD/svg10.dtd">
<svg version="1.0" xmlns="http://www.w3.org/2000/svg"
 width="300.000000pt" height="170.000000pt" viewBox="0 0 300.000000 170.000000"
 preserveAspectRatio="xMidYMid meet">
<metadata>
Created by potrace 1.10, written by Peter Selinger 2001-2011
</metadata>
<g transform="translate(0.000000,170.000000) scale(0.100000,-0.100000)"
fill="#000000" stroke="none">
<path d="M987 1440 c-47 -14 -98 -60 -119 -108 -29 -65 -22 -189 14 -262 l26
-52 -39 -35 c-21 -19 -51 -60 -66 -91 -23 -48 -27 -68 -27 -141 0 -101 22
-153 81 -198 l36 -28 271 -3 c149 -2 281 0 293 3 42 10 53 52 53 204 l0 140
-85 3 -85 3 0 -96 0 -97 -182 0 c-101 0 -191 5 -200 10 -42 21 -12 140 45 182
28 21 40 21 568 24 l539 3 0 -116 0 -115 -184 0 c-221 0 -216 -3 -216 122 l0
78 -85 0 -85 0 0 -64 c0 -152 37 -232 129 -278 l55 -28 253 0 c237 0 254 1
272 19 29 29 33 65 29 294 l-3 209 -28 24 -28 24 -552 0 c-530 0 -553 1 -584
20 -45 27 -65 70 -61 133 l3 52 158 3 157 3 0 -93 0 -93 85 0 85 0 0 148 0
149 -29 29 -29 29 -219 -1 c-120 0 -231 -5 -246 -9z m463 -23 c25 -13 25 -13
25 -152 l0 -140 -57 -3 -58 -3 1 69 c2 111 1 112 -89 113 -42 0 -113 2 -156 3
-72 3 -82 1 -101 -20 -18 -19 -20 -30 -15 -81 4 -32 10 -66 15 -75 4 -11 3
-18 -4 -18 -6 0 -11 -4 -11 -10 0 -5 8 -10 18 -10 9 0 35 -9 56 -21 21 -11 50
-22 65 -24 14 -1 179 -3 366 -4 l341 -1 12 -33 c7 -18 21 -43 32 -55 l21 -22
-23 -1 c-146 -6 -185 -5 -197 5 -11 8 -13 8 -8 -1 6 -9 -68 -12 -303 -12 -313
-1 -353 -3 -380 -26 -8 -7 -46 -27 -83 -44 -49 -23 -77 -44 -98 -74 l-31 -42
7 50 c4 28 14 62 21 76 7 15 11 29 8 31 -3 3 20 31 51 63 30 32 55 61 55 66 0
5 -8 23 -18 41 -10 18 -25 52 -34 76 l-17 43 40 -35 c21 -20 43 -36 48 -36 5
0 18 -3 28 -6 10 -4 -3 8 -28 25 -70 47 -85 88 -65 178 8 36 73 100 108 107
13 3 32 7 43 9 11 3 103 5 205 6 131 0 192 -3 210 -12z m608 -370 c206 -3 192
17 192 -266 0 -181 -3 -220 -16 -239 -15 -22 -19 -22 -207 -21 -195 1 -215 4
-252 43 -17 18 -35 65 -26 70 7 5 253 9 276 5 6 -1 15 0 20 1 6 1 19 4 30 5
54 6 55 9 55 141 0 143 -4 149 -82 133 -61 -13 -128 14 -158 63 -25 42 -27 78
-2 72 9 -2 86 -5 170 -7z m-578 -334 c0 -76 -5 -145 -10 -153 -8 -13 -51 -15
-284 -15 -263 0 -276 1 -303 21 -98 73 -96 187 4 253 42 27 57 28 43 2 -5 -11
-10 -44 -10 -74 0 -87 3 -89 226 -87 143 0 192 4 202 14 9 8 14 42 15 95 l2
81 58 0 57 0 0 -137z m210 63 c0 -44 5 -75 13 -85 8 -9 20 -38 27 -65 8 -27
27 -65 44 -84 25 -28 27 -34 11 -29 -11 3 -33 9 -50 13 -51 11 -112 52 -136
91 -18 30 -23 56 -26 123 -2 47 -1 90 1 97 3 7 26 11 60 10 l56 -2 0 -69z"/>
<path d="M1692 1417 c-93 -34 -143 -116 -145 -239 l-2 -79 82 -2 81 -2 4 66
c6 104 -11 99 294 99 l264 0 0 85 0 85 -272 -1 c-183 0 -284 -4 -306 -12z
m536 -15 c7 -3 12 -24 12 -58 l0 -54 -177 -1 c-295 -2 -311 -3 -341 -26 -22
-16 -27 -30 -32 -79 l-5 -59 -55 0 -55 0 -1 64 c-2 89 33 155 101 194 l50 27
245 -2 c135 -1 251 -3 258 -6z"/>
<path d="M2869 368 c-30 -12 -39 -26 -39 -65 0 -26 -4 -33 -20 -33 -11 0 -20
-7 -20 -15 0 -8 9 -15 20 -15 19 0 20 -7 20 -100 0 -93 1 -100 20 -100 19 0
20 7 20 100 l0 100 35 0 c24 0 35 5 35 15 0 10 -11 15 -35 15 -30 0 -35 3 -35
23 0 31 18 47 52 47 38 0 37 26 -1 32 -16 2 -39 0 -52 -4z m-2 -114 c-3 -3
-12 -4 -19 -1 -8 3 -5 6 6 6 11 1 17 -2 13 -5z"/>
<path d="M1942 363 c-31 -6 -27 -47 6 -51 19 -3 22 1 22 27 0 17 -1 30 -2 30
-2 -1 -13 -4 -26 -6z"/>
<path d="M2682 219 c3 -135 5 -152 22 -165 26 -18 76 -19 76 0 0 8 -11 17 -25
20 l-25 6 0 145 0 145 -26 0 -26 0 4 -151z"/>
<path d="M100 200 l0 -160 85 0 c78 0 88 2 110 25 33 32 34 87 2 119 -23 23
-23 24 -5 46 26 32 23 76 -7 105 -22 22 -32 25 -105 25 l-80 0 0 -160z m158
108 c17 -17 15 -54 -4 -72 -9 -10 -33 -16 -60 -16 l-44 0 0 50 0 50 48 0 c26
0 53 -5 60 -12z m4 -135 c20 -18 24 -63 6 -81 -7 -7 -36 -12 -65 -12 l-53 0 0
55 0 55 47 0 c29 0 53 -6 65 -17z"/>
<path d="M930 335 c0 -20 5 -25 25 -25 20 0 25 5 25 25 0 20 -5 25 -25 25 -20
0 -25 -5 -25 -25z"/>
<path d="M2176 335 c-52 -56 -47 -242 7 -280 25 -17 83 -20 124 -4 19 7 29 7
31 0 2 -6 10 -11 18 -11 11 0 14 18 14 85 l0 85 -55 0 c-42 0 -55 -3 -55 -15
0 -10 11 -15 35 -15 35 0 35 0 35 -44 0 -49 -9 -56 -70 -56 -65 0 -77 27 -71
155 4 72 20 85 103 85 51 0 68 3 68 14 0 20 -23 26 -96 26 -56 0 -68 -3 -88
-25z"/>
<path d="M626 305 c-5 -26 -12 -35 -26 -35 -11 0 -20 -7 -20 -15 0 -8 9 -15
20 -15 18 0 20 -7 20 -83 0 -69 3 -87 18 -100 24 -22 82 -23 82 -2 0 8 -6 15
-14 15 -32 0 -46 30 -46 101 l0 69 35 0 c24 0 35 5 35 15 0 10 -11 15 -35 15
-33 0 -35 2 -35 35 0 23 -5 35 -14 35 -8 0 -17 -15 -20 -35z"/>
<path d="M790 305 c0 -28 -4 -35 -20 -35 -11 0 -20 -7 -20 -15 0 -8 8 -15 18
-15 15 0 17 -9 14 -79 -4 -70 -2 -81 17 -100 13 -13 34 -21 56 -21 44 0 48 25
6 33 -29 6 -29 7 -33 87 l-3 80 33 0 c22 0 32 5 32 15 0 10 -10 15 -33 15 -32
0 -33 1 -29 35 4 30 1 35 -17 35 -17 0 -21 -6 -21 -35z"/>
<path d="M1276 324 c-3 -9 -6 -24 -6 -35 0 -12 -7 -19 -20 -19 -11 0 -20 -7
-20 -15 0 -8 9 -15 20 -15 18 0 20 -7 20 -83 0 -95 13 -117 68 -117 41 0 42
22 2 37 -30 11 -30 12 -30 87 l0 76 35 0 c24 0 35 5 35 15 0 10 -11 15 -35 15
-33 0 -35 2 -35 35 0 37 -22 49 -34 19z m24 -74 c0 -5 -2 -10 -4 -10 -3 0 -8
5 -11 10 -3 6 -1 10 4 10 6 0 11 -4 11 -10z"/>
<path d="M403 273 c-20 -2 -33 -10 -33 -19 0 -11 15 -14 60 -14 62 0 66 -3 72
-45 3 -17 -2 -20 -33 -17 -20 2 -53 -4 -73 -12 -34 -14 -36 -18 -36 -58 0 -24
5 -49 12 -56 15 -15 67 -16 105 -1 19 7 29 7 31 0 2 -6 12 -11 23 -11 17 0 19
8 19 94 0 75 -4 98 -18 116 -18 22 -69 32 -129 23z m101 -155 c-1 -29 -5 -34
-36 -42 -46 -11 -68 -3 -68 27 0 33 19 47 65 47 39 0 40 -1 39 -32z"/>
<path d="M1070 267 c-32 -11 -35 -16 -38 -55 -4 -57 10 -72 67 -72 57 0 74
-10 69 -41 -3 -22 -8 -24 -70 -27 -52 -2 -68 -6 -68 -17 0 -12 16 -15 74 -15
66 0 77 3 90 22 20 28 20 57 1 85 -12 17 -28 23 -67 25 -58 3 -82 25 -59 52
10 11 31 16 72 16 46 0 59 3 59 15 0 10 -10 15 -34 15 -19 0 -40 2 -48 4 -7 3
-29 0 -48 -7z"/>
<path d="M1475 273 c-35 -9 -54 -34 -61 -79 -8 -57 2 -110 27 -135 27 -27 121
-27 148 0 40 40 35 178 -7 200 -24 13 -83 20 -107 14z m83 -45 c18 -18 15
-123 -4 -142 -19 -19 -54 -21 -77 -3 -21 15 -26 119 -7 142 15 18 71 20 88 3z"/>
<path d="M1745 264 c-19 -10 -31 -11 -33 -5 -2 6 -12 11 -23 11 -18 0 -19 -8
-19 -115 0 -113 0 -115 23 -115 21 0 22 2 19 89 l-3 90 40 12 c62 18 71 6 71
-102 l0 -89 26 0 26 0 -4 101 c-3 92 -5 103 -27 120 -28 23 -56 24 -96 3z"/>
<path d="M2474 266 c-38 -17 -44 -31 -44 -110 0 -89 22 -116 95 -116 79 0 98
20 103 107 4 62 1 72 -19 96 -29 33 -90 43 -135 23z m100 -48 c9 -12 16 -41
16 -63 0 -53 -23 -85 -60 -85 -43 0 -60 23 -60 81 0 69 13 89 55 89 24 0 39
-7 49 -22z"/>
<path d="M930 155 l0 -115 25 0 25 0 0 115 0 115 -25 0 -25 0 0 -115z"/>
<path d="M1930 155 c0 -108 1 -115 20 -115 19 0 20 7 20 115 0 108 -1 115 -20
115 -19 0 -20 -7 -20 -115z"/>
</g>
</svg>
