<?xml version="1.0" standalone="no"?>
<!DOCTYPE svg PUBLIC "-//W3C//DTD SVG 20010904//EN"
 "http://www.w3.org/TR/2001/REC-SVG-20010904/DTD/svg10.dtd">
<svg version="1.0" xmlns="http://www.w3.org/2000/svg"
 width="300.000000pt" height="300.000000pt" viewBox="0 0 300.000000 300.000000"
 preserveAspectRatio="xMidYMid meet">
<metadata>
Created by potrace 1.10, written by Peter Selinger 2001-2011
</metadata>
<g transform="translate(0.000000,300.000000) scale(0.100000,-0.100000)"
fill="#000000" stroke="none">
<path d="M1085 2868 c-3 -7 -4 -627 -3 -1378 3 -1357 3 -1365 23 -1365 20 0
20 8 25 1115 l5 1114 387 126 c347 112 422 140 373 140 -33 0 -751 233 -758
246 -10 17 -46 18 -52 2z m27 -365 c2 -94 0 -169 -4 -166 -5 2 -7 120 -6 261
2 258 6 226 10 -95z m65 315 c15 -7 29 -13 31 -14 2 -1 -2 -11 -9 -22 -11 -18
-10 -24 5 -41 11 -12 25 -21 31 -21 14 0 216 -62 275 -84 19 -8 55 -17 79 -21
41 -7 47 -5 67 20 l22 28 73 -28 73 -28 -50 -18 c-27 -10 -96 -33 -154 -50
-58 -18 -112 -36 -120 -40 -15 -7 -123 -39 -137 -41 -5 0 -19 -5 -33 -10 -42
-17 -183 -68 -187 -68 -1 0 -3 101 -3 225 0 124 2 225 5 225 2 0 17 -5 32 -12z
m259 -108 c110 -34 204 -63 209 -65 6 -1 2 -6 -8 -10 -26 -11 -427 114 -427
133 0 8 6 12 14 9 7 -3 103 -33 212 -67z"/>
<path d="M161 1894 c0 -11 3 -14 6 -6 3 7 2 16 -1 19 -3 4 -6 -2 -5 -13z"/>
</g>
</svg>
