<?xml version="1.0" standalone="no"?>
<!DOCTYPE svg PUBLIC "-//W3C//DTD SVG 20010904//EN"
 "http://www.w3.org/TR/2001/REC-SVG-20010904/DTD/svg10.dtd">
<svg version="1.0" xmlns="http://www.w3.org/2000/svg"
 width="225.000000pt" height="225.000000pt" viewBox="0 0 225.000000 225.000000"
 preserveAspectRatio="xMidYMid meet">
<metadata>
Created by potrace 1.10, written by Peter Selinger 2001-2011
</metadata>
<g transform="translate(0.000000,225.000000) scale(0.100000,-0.100000)"
fill="#000000" stroke="none">
<path d="M48 1925 c-15 -8 -30 -25 -33 -37 -4 -13 -9 -32 -12 -43 -4 -13 8 -6
34 23 22 23 46 42 53 42 6 0 -2 -13 -19 -29 l-31 -29 2 -650 3 -650 25 -28 25
-27 -23 13 c-13 6 -31 25 -40 41 -10 16 -20 29 -25 29 -15 0 6 -55 29 -80 l24
-25 375 -3 c206 -1 375 -5 375 -7 0 -3 -7 -23 -16 -44 l-16 -40 -85 -3 c-90
-3 -114 -15 -100 -52 6 -14 55 -16 532 -16 477 0 526 2 532 16 14 37 -10 49
-100 52 l-85 3 -16 40 c-9 21 -16 41 -16 44 0 2 169 6 375 7 l375 3 24 25 c25
26 48 99 27 86 -6 -4 -18 -20 -26 -36 -8 -16 -25 -35 -37 -41 -20 -11 -20 -9
5 20 l27 33 0 645 0 645 -29 29 c-16 16 -25 29 -19 29 11 0 56 -45 76 -75 11
-18 12 -16 6 15 -8 44 -22 66 -51 79 -17 8 -347 11 -1071 11 -897 -1 -1051 -3
-1074 -15z m2130 -709 c1 -471 -1 -653 -9 -662 -16 -19 -2068 -21 -2087 -2 -9
9 -12 169 -12 658 0 356 3 650 7 653 3 4 477 6 1052 5 l1046 -3 3 -649z m-384
-713 c-330 -3 -352 -4 -368 -22 -16 -18 -16 -22 5 -70 12 -28 29 -56 38 -61
12 -7 3 -9 -33 -10 -49 0 -49 0 -31 20 16 18 17 24 5 60 -27 82 -21 80 -285
80 -264 0 -258 2 -286 -82 -12 -38 -12 -42 10 -59 l23 -19 -53 0 c-47 1 -52 2
-37 14 10 7 27 34 39 60 20 45 20 49 3 67 -16 18 -37 19 -373 22 -196 1 105 2
669 2 564 0 867 -1 674 -2z m-414 -80 l19 -43 -275 0 c-268 0 -274 0 -264 19
5 11 14 31 20 46 l10 25 235 -2 236 -3 19 -42z"/>
<path d="M120 1832 c-7 -3 -10 -221 -10 -628 l0 -624 1013 2 1012 3 3 623 c1
342 -1 622 -5 622 -416 3 -2006 4 -2013 2z m1980 -627 l0 -585 -975 0 -975 0
0 585 0 585 975 0 975 0 0 -585z"/>
</g>
</svg>
