<?xml version="1.0" standalone="no"?>
<!DOCTYPE svg PUBLIC "-//W3C//DTD SVG 20010904//EN"
 "http://www.w3.org/TR/2001/REC-SVG-20010904/DTD/svg10.dtd">
<svg version="1.0" xmlns="http://www.w3.org/2000/svg"
 width="450.000000pt" height="254.000000pt" viewBox="0 0 450.000000 254.000000"
 preserveAspectRatio="xMidYMid meet">
<metadata>
Created by potrace 1.10, written by Peter Selinger 2001-2011
</metadata>
<g transform="translate(0.000000,254.000000) scale(0.050000,-0.050000)"
fill="#ffffff" stroke="none">
<path d="M3080 4321 c-494 -69 -695 -653 -402 -1170 l56 -100 -127 -123 c-406
-392 -379 -1112 49 -1322 l114 -56 790 0 c1034 0 960 -48 960 628 l0 422 -250
0 -250 0 0 -280 0 -280 -569 0 c-565 0 -569 0 -600 44 -60 87 -30 307 59 437
116 167 13 158 1820 159 l1600 2 1 -331 c1 -182 -5 -341 -12 -352 -9 -15 -181
-19 -531 -15 -668 8 -648 -4 -648 387 l0 229 -252 0 -252 0 7 -305 c10 -431
97 -593 395 -732 l112 -53 745 -6 c831 -6 842 -5 897 127 41 99 41 1319 0
1418 -59 141 24 135 -1752 133 -1732 -1 -1727 -2 -1845 108 -95 89 -135 193
-135 348 0 205 -9 202 524 202 l436 0 0 -280 0 -280 251 0 252 0 -7 452 -6
451 -75 69 -74 68 -528 0 c-290 0 -554 4 -585 8 -32 5 -107 1 -168 -7z"/>
<path d="M5210 4260 c-349 -51 -553 -320 -567 -745 l-7 -235 252 0 252 0 0
192 c0 185 2 193 58 250 l59 58 771 0 772 0 0 250 0 250 -745 -2 c-410 -2
-790 -10 -845 -18z"/>
<path d="M8060 669 l0 -451 49 -49 c69 -69 237 -73 227 -5 -4 28 -26 49 -64
59 -89 23 -91 37 -92 482 l0 415 -60 0 -60 0 0 -451z"/>
<path d="M8586 1100 c-56 -23 -87 -82 -103 -197 -11 -76 -21 -94 -58 -99 -68
-10 -64 -104 5 -104 l50 0 0 -290 0 -290 70 0 70 0 0 290 0 290 100 0 c98 0
100 1 100 60 0 59 -2 60 -100 60 l-100 0 0 69 c0 90 44 131 143 131 71 0 79 5
73 45 -7 50 -161 72 -250 35z"/>
<path d="M320 598 l0 -481 260 6 c321 9 361 34 376 236 8 116 6 123 -62 191
l-71 71 48 49 c39 38 49 69 49 148 0 214 -71 262 -388 262 l-212 0 0 -482z
m443 329 c124 -112 18 -267 -183 -267 l-140 0 0 150 0 150 143 0 c106 0 154
-9 180 -33z m30 -419 c133 -132 32 -268 -197 -268 l-156 0 0 160 0 160 151 0
c135 0 156 -5 202 -52z"/>
<path d="M2800 1010 c0 -67 3 -70 70 -70 67 0 70 3 70 70 0 67 -3 70 -70 70
-67 0 -70 -3 -70 -70z"/>
<path d="M5780 1010 c0 -67 3 -70 70 -70 67 0 70 3 70 70 0 67 -3 70 -70 70
-67 0 -70 -3 -70 -70z"/>
<path d="M6586 1047 c-209 -102 -225 -746 -22 -894 67 -49 234 -52 345 -5 70
30 81 30 96 3 9 -17 39 -31 66 -31 l49 0 0 260 0 260 -170 0 -170 0 0 -60 c0
-59 2 -60 100 -60 l100 0 0 -128 c0 -146 -7 -151 -196 -152 -190 0 -224 55
-224 366 0 311 40 354 330 354 188 0 193 1 186 45 -10 76 -361 106 -490 42z"/>
<path d="M1893 1007 c-7 -8 -13 -40 -13 -72 0 -79 -33 -135 -81 -135 -28 0
-39 -14 -39 -50 0 -40 10 -50 50 -50 l50 0 0 -221 c0 -310 30 -358 225 -359
67 0 75 6 75 50 0 42 -9 50 -58 50 -91 0 -110 43 -119 273 l-8 207 103 0 c100
0 102 1 102 60 0 59 -2 60 -100 60 l-100 0 0 100 c0 97 -38 135 -87 87z"/>
<path d="M2370 946 c-7 -42 -14 -89 -17 -106 -2 -17 -28 -33 -58 -36 -81 -10
-80 -104 1 -104 l56 0 -1 -242 c-1 -240 -1 -242 55 -290 84 -72 254 -71 254 2
0 42 -9 50 -59 50 -103 0 -121 39 -121 271 l0 209 90 0 c87 0 90 2 90 60 0 58
-3 60 -89 60 l-89 0 -6 95 c-8 130 -86 153 -106 31z"/>
<path d="M3833 989 c-7 -18 -13 -63 -13 -101 0 -61 -7 -70 -60 -81 -79 -16
-89 -107 -12 -107 48 0 49 -1 55 -242 7 -236 8 -243 63 -290 84 -72 254 -71
254 2 0 42 -9 50 -59 50 -103 0 -121 39 -121 271 l0 209 90 0 c87 0 90 2 90
60 0 58 -3 60 -89 60 l-89 0 -6 95 c-6 101 -75 150 -103 74z"/>
<path d="M1155 807 c-111 -32 -34 -87 121 -87 183 0 226 -22 231 -121 l3 -69
-130 -5 c-248 -10 -300 -46 -300 -206 0 -206 166 -273 386 -156 32 17 46 15
65 -10 13 -18 43 -33 66 -33 71 0 66 551 -5 634 -48 56 -315 88 -437 53z m355
-457 l0 -100 -104 -28 c-129 -34 -206 1 -206 93 1 103 73 146 230 139 l80 -4
0 -100z"/>
<path d="M2800 471 l0 -351 70 0 71 0 -6 345 -5 345 -65 6 -65 7 0 -352z"/>
<path d="M3187 800 c-112 -45 -147 -241 -60 -329 45 -45 80 -53 323 -77 33 -3
40 -19 40 -84 0 -94 -24 -104 -266 -108 -191 -3 -206 -62 -24 -87 271 -37 420
28 420 183 0 165 -64 222 -249 222 -147 0 -171 12 -171 88 0 98 28 112 224
112 144 0 176 5 176 30 0 62 -295 98 -413 50z"/>
<path d="M4348 782 c-153 -93 -151 -534 3 -635 81 -52 309 -49 384 6 165 122
155 549 -14 637 -86 44 -295 40 -373 -8z m315 -100 c65 -53 71 -351 9 -420
-56 -62 -220 -60 -260 3 -157 244 46 582 251 417z"/>
<path d="M5013 807 c-7 -8 -13 -165 -13 -350 l0 -337 70 0 70 0 0 258 c0 297
4 304 167 318 152 12 161 -6 170 -319 l7 -257 58 0 58 0 0 271 c0 411 -119
532 -384 390 -73 -40 -74 -40 -86 0 -12 38 -88 55 -117 26z"/>
<path d="M5780 471 l0 -351 70 0 71 0 -6 345 -5 345 -65 6 -65 7 0 -352z"/>
<path d="M7410 792 c-126 -55 -179 -450 -78 -586 152 -204 526 -98 558 158 45
362 -177 560 -480 428z m293 -110 c70 -57 81 -326 17 -407 -55 -70 -196 -79
-260 -15 -48 48 -62 229 -29 376 19 84 189 113 272 46z"/>
</g>
</svg>
